PathFileType	4	(X/Y/Z)	Walk6.trc
DataRate	CameraRate	NumFrames	NumMarkers	Units	OrigDataRate	OrigDataStartFrame	OrigNumFrames
200.000000	200.000000	6	60	mm	200.000000	504	752
Frame#	Times		RCAR		LTH3		RTH2		LBHD		LWRU		LCAR		LUA1		LFA1		LElbow		RTB3		RFA1		RToe		RASI		LElbowM		RMT5		RTB2		C7		RLFC		LTH2		RBHD		RPSI		LWRR		RMT1		RWRU		RTB1		LASI		RTB4		STRN		T10		CLAV		RBack		LPSI		RLMAL		RElbow		LTH4		LLFC		RUA1		LTB4		LACR1		LTB3		RCAL		LFHD		RTH3		LCAL		LTB1		LMMAL		RElbowM		RTH1		LTB2		RFHD		RACR1		LMFC		RTH4		RMFC		LLMAL		LMT5		RWRR		LTH1		LToe		LMT1
			X1	Y1	Z1	X2	Y2	Z2	X3	Y3	Z3	X4	Y4	Z4	X5	Y5	Z5	X6	Y6	Z6	X7	Y7	Z7	X8	Y8	Z8	X9	Y9	Z9	X10	Y10	Z10	X11	Y11	Z11	X12	Y12	Z12	X13	Y13	Z13	X14	Y14	Z14	X15	Y15	Z15	X16	Y16	Z16	X17	Y17	Z17	X18	Y18	Z18	X19	Y19	Z19	X20	Y20	Z20	X21	Y21	Z21	X22	Y22	Z22	X23	Y23	Z23	X24	Y24	Z24	X25	Y25	Z25	X26	Y26	Z26	X27	Y27	Z27	X28	Y28	Z28	X29	Y29	Z29	X30	Y30	Z30	X31	Y31	Z31	X32	Y32	Z32	X33	Y33	Z33	X34	Y34	Z34	X35	Y35	Z35	X36	Y36	Z36	X37	Y37	Z37	X38	Y38	Z38	X39	Y39	Z39	X40	Y40	Z40	X41	Y41	Z41	X42	Y42	Z42	X43	Y43	Z43	X44	Y44	Z44	X45	Y45	Z45	X46	Y46	Z46	X47	Y47	Z47	X48	Y48	Z48	X49	Y49	Z49	X50	Y50	Z50	X51	Y51	Z51	X52	Y52	Z52	X53	Y53	Z53	X54	Y54	Z54	X55	Y55	Z55	X56	Y56	Z56	X57	Y57	Z57	X58	Y58	Z58	X59	Y59	Z59	X60	Y60	Z60

504	2.52	-304.24	839.56	317.15	-353.1	616.78	-173.97	-187.27	744.61	169.66	-351.78	1647.1	-109.69	-152.27	897.46	-311.82	-70.409	885.43	-311.17	-298.71	1305.7	-298.81	-219.59	1013	-334.08	-285.61	1150.6	-332.6	-179.11	214.43	125.37	-395.99	1001.1	284.84	-53.522	64.924	172.13	-274.4	1051.4	128.73	-326.41	1129.2	-269.56	-147.57	41.067	207.11	-203.1	303.75	189.67	-378.56	1519.3	-35.982	-209.58	522.32	193.86	-273.38	703.28	-163.04	-349.86	1656.8	31.942	-480.79	1028.6	21.531	-97.348	931.07	-258.96	-92.063	55.1	141.51	-362.67	868.5	295.63	-152.37	397.9	137.5	-266.37	1041.6	-155.39	-164.12	305.55	130.18	-200.16	1259	-26.252	-482.91	1296.4	-37.975	-246.6	1432	-28.367	-464.78	1434.3	89.616	-479.95	1026.5	-56.146	-237.12	91.529	160.14	-414.44	1148.8	253.41	-340.69	707.07	-188.34	-376.18	513.01	-162.69	-366.71	1300.2	224.22	-374.82	283.31	-83.117	-296.77	1473.1	-196.59	-397.96	189.98	-83.559	-280.04	52.875	100.71	-174.02	1691	-70.415	-227.17	634.68	198.4	-524.75	27.167	-80.955	-351.61	370.14	-86.457	-437.53	87.895	-41.247	-424.25	1131.4	175.03	-284.19	816.55	195.34	-395.18	288.12	-155.84	-174.13	1694.9	5.9401	-312.76	1471.1	130.5	-368.18	516.97	-32.966	-251.8	726.39	202.35	-181.86	530.98	63.756	-465	69.173	-123.44	-368.21	20.501	-160.12	-293.74	877.22	262.51	-325.54	798.35	-202.17	-266.55	29.937	-91.052	-320.55	38.663	-76.002
505	2.525	-302.41	838.83	318.07	-350.75	616.62	-173.83	-182.93	743.77	169.35	-347.1	1646.5	-109.16	-144.02	898.56	-311.6	-62.022	887.28	-310.99	-293.28	1305.6	-298.53	-212.26	1013.5	-334.04	-279.38	1150.7	-332.68	-166.38	214.19	126.28	-393.31	1000.8	285.35	-36.508	67.511	173.18	-269.78	1050.8	129.1	-320.11	1128.9	-269.67	-130.04	41.674	208.59	-192.54	303.2	190.2	-373.7	1518.8	-35.487	-204.5	521.65	193.51	-270.51	702.54	-162.58	-345.17	1656.2	32.45	-476.13	1028.1	21.863	-89.368	932.68	-258.78	-75.082	56.963	142.72	-360.63	868.03	296.29	-144.48	398.35	137.44	-261.85	1041	-155.04	-153.82	305.7	130.61	-195.43	1258.4	-25.851	-478.18	1296	-37.562	-241.76	1431.4	-27.9	-459.94	1433.9	90.009	-475.37	1026	-55.821	-221.01	89.929	161.74	-410.99	1148.5	253.76	-337.67	706.83	-188.09	-374.66	512.92	-162.62	-362.59	1299.7	224.66	-374.16	283.17	-83.062	-291.87	1472.7	-196.04	-397.57	189.91	-83.536	-263.2	50.096	102.54	-169.36	1690.6	-69.912	-222.81	633.88	198.19	-524.75	27.261	-80.943	-350.76	369.92	-86.371	-437.47	87.914	-41.231	-420.45	1131.1	175.39	-279.69	815.88	195.6	-394.52	288.04	-155.8	-169.48	1694.5	6.4442	-307.91	1470.5	131.02	-366.92	516.97	-32.84	-247.39	725.66	202.3	-177.38	530.19	63.128	-464.99	69.248	-123.42	-368.24	20.491	-160.13	-291.53	876.45	263.53	-321.86	798	-201.85	-266.55	29.922	-91.077	-320.55	38.661	-76.002
506	2.53	-300.5	838.09	319.01	-348.33	616.44	-173.67	-178.65	742.82	169.05	-342.4	1645.9	-108.61	-135.86	899.63	-311.35	-53.74	889.08	-310.78	-287.86	1305.5	-298.23	-205	1014	-333.97	-273.2	1150.7	-332.75	-153.81	214.07	127.18	-390.56	1000.5	285.89	-19.728	70.264	174.2	-265.14	1050.2	129.48	-313.87	1128.6	-269.77	-112.71	42.479	210.03	-182.09	302.72	190.74	-368.83	1518.3	-34.969	-199.53	520.91	193.14	-267.59	701.78	-162.09	-340.46	1655.6	32.986	-471.44	1027.5	22.222	-81.485	934.25	-258.58	-58.33	59.015	143.9	-358.51	867.55	296.99	-136.72	398.81	137.36	-257.32	1040.5	-154.67	-143.66	305.91	131.03	-190.68	1257.7	-25.43	-473.44	1295.6	-37.12	-236.91	1430.8	-27.41	-455.09	1433.4	90.43	-470.77	1025.4	-55.47	-205.05	88.555	163.33	-407.5	1148.3	254.14	-334.61	706.56	-187.83	-373.08	512.83	-162.54	-358.42	1299.2	225.13	-373.48	283.03	-83	-286.95	1472.2	-195.47	-397.17	189.83	-83.505	-246.51	47.579	104.37	-164.68	1690.1	-69.384	-218.55	632.97	197.97	-524.76	27.364	-80.934	-349.88	369.7	-86.27	-437.4	87.94	-41.221	-416.63	1130.9	175.78	-275.21	815.12	195.83	-393.82	287.97	-155.74	-164.81	1694	6.9732	-303.04	1469.9	131.56	-365.61	516.97	-32.696	-243.04	724.84	202.25	-172.99	529.32	62.504	-464.97	69.332	-123.4	-368.27	20.477	-160.14	-289.24	875.68	264.56	-318.15	797.62	-201.51	-266.54	29.904	-91.102	-320.54	38.662	-76.007
507	2.535	-298.49	837.35	319.97	-345.86	616.24	-173.5	-174.42	741.77	168.74	-337.69	1645.2	-108.03	-127.8	900.66	-311.08	-45.563	890.85	-310.53	-282.45	1305.4	-297.91	-197.81	1014.4	-333.88	-267.09	1150.6	-332.79	-141.41	214.09	128.06	-387.74	1000.2	286.47	-3.2245	73.17	175.17	-260.48	1049.5	129.88	-307.69	1128.2	-269.84	-95.618	43.471	211.41	-171.78	302.33	191.27	-363.94	1517.7	-34.427	-194.65	520.11	192.77	-264.64	701	-161.57	-335.74	1654.9	33.551	-466.73	1026.9	22.61	-73.702	935.78	-258.35	-41.84	61.239	145.03	-356.28	867.04	297.74	-129.09	399.26	137.28	-252.76	1039.9	-154.28	-133.65	306.19	131.44	-185.92	1257.1	-24.99	-468.69	1295.1	-36.649	-232.05	1430.2	-26.898	-450.21	1432.9	90.877	-466.16	1024.9	-55.09	-189.28	87.405	164.91	-403.95	1147.9	254.57	-331.5	706.27	-187.55	-371.43	512.73	-162.45	-354.21	1298.7	225.62	-372.76	282.87	-82.931	-282.02	1471.8	-194.87	-396.76	189.75	-83.465	-229.99	45.324	106.17	-160	1689.6	-68.832	-214.38	631.98	197.74	-524.76	27.476	-80.927	-348.95	369.46	-86.151	-437.33	87.972	-41.215	-412.79	1130.5	176.22	-270.77	814.26	196.05	-393.09	287.89	-155.67	-160.12	1693.5	7.5274	-298.14	1469.2	132.11	-364.25	516.98	-32.533	-238.74	723.94	202.19	-168.68	528.39	61.895	-464.95	69.426	-123.39	-368.3	20.459	-160.15	-286.87	874.91	265.61	-314.41	797.22	-201.15	-266.54	29.882	-91.128	-320.54	38.664	-76.014
508	2.54	-296.39	836.61	320.94	-343.33	616.03	-173.31	-170.23	740.63	168.44	-332.96	1644.5	-107.42	-119.84	901.66	-310.78	-37.494	892.57	-310.26	-277.07	1305.2	-297.56	-190.71	1014.8	-333.76	-261.03	1150.6	-332.82	-129.2	214.22	128.93	-384.85	999.84	287.1	12.962	76.206	176.1	-255.79	1048.8	130.29	-301.56	1127.9	-269.89	-78.818	44.632	212.72	-161.61	302	191.8	-359.04	1517.2	-33.862	-189.86	519.27	192.39	-261.65	700.21	-161.02	-331	1654.2	34.145	-462	1026.2	23.026	-66.02	937.27	-258.09	-25.65	63.612	146.13	-353.96	866.52	298.53	-121.58	399.71	137.2	-248.19	1039.3	-153.88	-123.81	306.53	131.84	-181.16	1256.4	-24.533	-463.92	1294.6	-36.149	-227.17	1429.5	-26.365	-445.31	1432.4	91.351	-461.53	1024.2	-54.678	-173.72	86.475	166.45	-400.35	1147.6	255.03	-328.34	705.97	-187.25	-369.71	512.62	-162.34	-349.95	1298.1	226.13	-372	282.71	-82.854	-277.08	1471.3	-194.25	-396.33	189.65	-83.415	-213.69	43.328	107.94	-155.3	1689.1	-68.255	-210.28	630.91	197.49	-524.75	27.599	-80.922	-347.97	369.22	-86.014	-437.25	88.011	-41.213	-408.93	1130.2	176.7	-266.34	813.32	196.24	-392.32	287.81	-155.59	-155.42	1693	8.1076	-293.23	1468.5	132.69	-362.83	516.99	-32.351	-234.47	722.95	202.13	-164.44	527.42	61.311	-464.92	69.532	-123.38	-368.33	20.438	-160.15	-284.42	874.14	266.67	-310.63	796.79	-200.78	-266.53	29.857	-91.156	-320.53	38.67	-76.024
509	2.545	-294.2	835.86	321.93	-340.74	615.8	-173.1	-166.08	739.42	168.15	-328.22	1643.8	-106.78	-111.98	902.62	-310.46	-29.534	894.24	-309.95	-271.69	1304.9	-297.19	-183.7	1015.2	-333.62	-255.03	1150.5	-332.82	-117.2	214.46	129.78	-381.89	999.47	287.75	28.791	79.351	176.98	-251.08	1048.1	130.71	-295.49	1127.5	-269.91	-62.35	45.943	213.94	-151.61	301.75	192.32	-354.13	1516.5	-33.274	-185.14	518.38	192.02	-258.6	699.4	-160.45	-326.25	1653.5	34.769	-457.24	1025.5	23.474	-58.439	938.71	-257.8	-9.7959	66.112	147.17	-351.55	865.97	299.36	-114.19	400.15	137.13	-243.6	1038.6	-153.47	-114.14	306.93	132.24	-176.37	1255.6	-24.059	-459.14	1294.1	-35.622	-222.28	1428.8	-25.809	-440.4	1431.8	91.852	-456.88	1023.6	-54.234	-158.42	85.756	167.94	-396.7	1147.2	255.54	-325.14	705.64	-186.94	-367.92	512.5	-162.21	-345.66	1297.6	226.67	-371.21	282.53	-82.769	-272.12	1470.7	-193.6	-395.89	189.56	-83.356	-197.64	41.583	109.66	-150.59	1688.6	-67.652	-206.24	629.77	197.24	-524.74	27.734	-80.919	-346.95	368.96	-85.857	-437.17	88.056	-41.213	-405.05	1129.8	177.21	-261.92	812.31	196.43	-391.5	287.73	-155.5	-150.7	1692.5	8.714	-288.29	1467.8	133.28	-361.33	517.01	-32.151	-230.22	721.9	202.08	-160.25	526.4	60.759	-464.88	69.65	-123.38	-368.36	20.415	-160.16	-281.89	873.36	267.74	-306.82	796.35	-200.38	-266.52	29.826	-91.185	-320.52	38.678	-76.036
